#!OML:ASF E:\Mandelcareful walks\Project 1\Capture day 1\Session 1\Subject1.ASF
:FULLY-SPECIFIED
:DEGREES
712
root 21.6751 14.8676 -4.63514 -163.776 -30.9242 172.331
lowerback 38.2715 -3.07598 3.63924
upperback 6.16583 -3.78344 2.72936
thorax -11.8912 -2.50473 2.79553
lowerneck -25.8203 -2.43548 -6.13168
upperneck 8.53563 -1.28987 -1.7742
head 6.72837 -1.1573 0.192374
rclavicle 6.12257e-014 -6.75868e-014
rhumerus -19.9396 8.62586 -69.7791
rradius 65.0802
rwrist -13.8006
rhand -13.6976 -26.8202
rfingers 7.12502
rthumb 12.4207 -56.4312
lclavicle 6.12257e-014 -6.75868e-014
lhumerus -11.7201 -39.4837 81.6478
lradius 64.56
lwrist 20.4137
lhand -25.474 -18.5405
lfingers 7.12502
lthumb 1.05374 11.4366
rfemur -58.2 -11.5092 27.7742
rtibia 58.8862
rfoot -15.1123 -5.62182
rtoes 17.4986
lfemur -32.5165 24.7699 -36.4972
ltibia 75.1385
lfoot -16.1566 -10.6274
ltoes 7.50357
713
root 21.5619 14.8993 -4.73052 -163.488 -30.8381 172.079
lowerback 38.5391 -3.0246 3.62797
upperback 6.21982 -3.73119 2.77404
thorax -11.9199 -2.49035 2.83974
lowerneck -25.9497 -2.8434 -6.06464
upperneck 8.52732 -1.8436 -1.91958
head 6.75323 -1.44158 0.0595937
rclavicle 1.51076e-014 -2.06736e-014
rhumerus -19.285 8.80644 -69.7989
rradius 65.0925
rwrist -13.8555
rhand -13.0843 -26.2501
rfingers 7.12502
rthumb 13.0119 -55.8243
lclavicle 1.51076e-014 -2.06736e-014
lhumerus -12.035 -39.2423 81.4623
lradius 64.4559
lwrist 21.2737
lhand -25.6278 -18.4289
lfingers 7.12502
lthumb 0.905242 11.5489
rfemur -57.9082 -11.5701 27.1549
rtibia 59.191
rfoot -15.7344 -5.4453
rtoes 18.5561
lfemur -33.5829 26.2741 -35.7895
ltibia 77.1178
lfoot -11.3908 -12.9419
ltoes 3.89951
714
root 21.4403 14.9296 -4.82251 -163.39 -30.9765 171.635
lowerback 38.9501 -3.19846 3.84647
upperback 6.39451 -3.91665 2.67969
thorax -11.8685 -2.60199 2.71814
lowerneck -26.2277 -3.11749 -6.02263
upperneck 8.45028 -2.22833 -1.87539
head 6.77459 -1.62599 0.0137109
rclavicle 1.66979e-014 6.36111e-015
rhumerus -18.4447 8.80464 -69.9094
rradius 65.0209
rwrist -13.8055
rhand -13.5757 -26.8055
rfingers 7.12502
rthumb 12.5382 -56.4093
lclavicle 1.66979e-014 6.36111e-015
lhumerus -12.0985 -38.9179 81.0812
lradius 64.2107
lwrist 21.9382
lhand -25.9773 -18.9192
lfingers 7.12502
lthumb 0.567716 11.0598
rfemur -57.38 -12.0622 26.3306
rtibia 59.5876
rfoot -16.2447 -5.16247
rtoes 18.5038
lfemur -34.2111 27.4605 -34.9655
ltibia 78.9298
lfoot -7.34331 -14.8382
ltoes -6.31632
715
root 21.3595 14.939 -4.9053 -162.637 -30.791 171.225
lowerback 38.7578 -3.02965 3.31794
upperback 6.41348 -3.90715 2.77123
thorax -11.7603 -2.57851 3.07448
lowerneck -26.3547 -3.23756 -6.22329
upperneck 8.32899 -2.35063 -1.72491
head 6.75818 -1.68007 0.0774768
rclavicle 9.62118e-014 -3.81667e-014
rhumerus -17.6804 9.21673 -69.8977
rradius 65.1159
rwrist -14.0849
rhand -13.3339 -26.3712
rfingers 7.12502
rthumb 12.7713 -55.9606
lclavicle 9.62118e-014 -3.81667e-014
lhumerus -12.3043 -38.3536 80.8487
lradius 63.988
lwrist 22.509
lhand -26.4213 -19.1475
lfingers 7.12502
lthumb 0.138825 10.8322
rfemur -57.8563 -12.0538 25.8543
rtibia 60.12
rfoot -16.5465 -5.14007
rtoes 17.8236
lfemur -35.9004 28.8605 -34.3402
ltibia 80.802
lfoot -4.37862 -16.4423
ltoes -20.8078
716
root 21.2169 14.9581 -4.98432 -162.595 -31.3999 170.743
lowerback 39.0929 -3.69408 4.07155
upperback 6.44108 -4.45767 2.69525
thorax -11.8615 -2.85593 2.85707
lowerneck -26.2255 -3.3693 -6.68559
upperneck 8.25737 -2.41757 -1.5487
head 6.72346 -1.71224 0.200829
rclavicle -1.98785e-014 4.69132e-014
rhumerus -17.0995 9.99406 -69.7199
rradius 65.4007
rwrist -14.4664
rhand -12.7311 -25.4994
rfingers 7.12502
rthumb 13.3524 -55.0515
lclavicle -1.98785e-014 4.69132e-014
lhumerus -12.776 -37.6782 80.7191
lradius 63.933
lwrist 23.1228
lhand -26.5894 -18.8408
lfingers 7.12502
lthumb -0.0235316 11.1389
rfemur -57.4397 -13.4554 25.2273
rtibia 60.6118
rfoot -16.9587 -4.68112
rtoes 16.9854
lfemur -36.1463 29.3121 -33.41
ltibia 82.1577
lfoot -3.26112 -16.8375
ltoes -24.7599
